<?xml version="1.0" encoding="UTF-8"?>
<svg version="1.1" xmlns="http://www.w3.org/2000/svg" width="1254" height="1254">
<path d="M0 0 C413.82 0 827.64 0 1254 0 C1254 413.82 1254 827.64 1254 1254 C840.18 1254 426.36 1254 0 1254 C0 840.18 0 426.36 0 0 Z " fill="#F50205" transform="translate(0,0)"/>
<path d="M0 0 C84.4903125 -0.4021875 84.4903125 -0.4021875 170.6875 -0.8125 C188.47615967 -0.93085205 206.26481934 -1.0492041 224.5925293 -1.17114258 C246.30627441 -1.2298584 246.30627441 -1.2298584 256.46980286 -1.24076843 C263.57230109 -1.25288598 270.67346817 -1.3005428 277.77558899 -1.3724823 C285.97101918 -1.45537319 294.16517403 -1.49283626 302.36102634 -1.47478436 C306.55215709 -1.46696804 310.74043989 -1.479146 314.93104494 -1.5497967 C342.36789363 -1.99052479 342.36789363 -1.99052479 349.69508153 4.55246478 C352.14034151 7.21183916 354.05400539 9.95091548 356 13 C357.18453264 14.39555612 358.38635987 15.77723701 359.625 17.125 C360.14320313 17.73601562 360.66140625 18.34703125 361.1953125 18.9765625 C363.52637298 21.59017576 366.00816423 24.04153889 368.5 26.5 C371.55315893 29.51232082 374.5407235 32.53548829 377.3125 35.8125 C382.33861009 41.7111133 387.97651945 47.05901409 393.48535156 52.5012207 C393.98518555 52.99581787 394.48501953 53.49041504 395 54 C395.51782736 54.41673068 396.03565472 54.83346136 396.56917381 55.26282024 C398.53816391 57.65338995 398.38750342 59.218041 398.40786743 62.2936554 C398.42210754 63.39136261 398.43634766 64.48906982 398.45101929 65.62004089 C398.45133652 67.42714287 398.45133652 67.42714287 398.45166016 69.27075195 C398.46334229 70.53927002 398.47502441 71.80778809 398.48706055 73.11474609 C398.51785663 76.59629299 398.52898409 80.07763436 398.53470278 83.55930352 C398.53905628 85.73517395 398.54743059 87.91099107 398.55720139 90.08684349 C398.59095579 97.67991233 398.60808348 105.27282565 398.61083984 112.8659668 C398.6138734 119.94005388 398.65430034 127.01326624 398.71198809 134.08709937 C398.75978826 140.16282109 398.78057193 146.23825433 398.78063047 152.31416291 C398.78116832 155.94200806 398.79273259 159.56899713 398.83180618 163.19664955 C398.8743808 167.24540739 398.8608521 171.29212539 398.84228516 175.34106445 C398.86273895 176.53972641 398.88319275 177.73838837 398.90426636 178.97337341 C398.80367995 186.9447372 398.80367995 186.9447372 396.45997238 190.02211571 C394.71019553 191.5197389 392.9239563 192.74182923 391 194 C389.63755204 195.64295195 388.30135125 197.30824337 387 199 C385.34837341 200.68388492 383.67987794 202.34452885 382 204 C378.70483799 207.26732498 375.4146905 210.53966736 372.125 213.8125 C370.81595703 215.10897461 370.81595703 215.10897461 369.48046875 216.43164062 C365.74075551 220.15729479 362.04514018 223.87013822 358.6171875 227.88671875 C358.08206637 228.4770735 357.54694525 229.06742825 356.99560833 229.67567253 C354.89739233 232.03888613 354.89739233 232.03888613 352.93387318 234.97891426 C348.7494388 240.52107368 344.6669155 244.08243444 337.62969017 245.08967209 C330.77495331 245.6347352 323.92427099 245.48235737 317.05541992 245.35888672 C314.41464041 245.35553838 311.77427375 245.35699399 309.13354492 245.36454773 C303.46419418 245.37157382 297.79645534 245.33567061 292.1274929 245.27056503 C283.92391769 245.17694594 275.72136219 245.15597961 267.5173109 245.15334417 C254.19455036 245.1476723 240.87249092 245.09300295 227.55004883 245.00292969 C226.75419565 244.99756042 225.95834246 244.99219116 225.13837252 244.98665918 C224.34151292 244.98128043 223.54465332 244.97590167 222.72364646 244.97035992 C211.4151736 244.89413802 200.10671479 244.82964614 188.7980957 244.77929688 C188.0017044 244.77573877 187.20531309 244.77218066 186.38478871 244.76851474 C173.10337474 244.71016703 159.82196169 244.67611943 146.54044038 244.6544801 C138.35676462 244.63957813 130.17387637 244.59986589 121.99049977 244.52783854 C115.72507463 244.47378729 109.45985645 244.44889926 103.1942215 244.43447304 C100.62505413 244.42326927 98.05590809 244.40164766 95.48692513 244.36889076 C91.98187135 244.32546366 88.47859038 244.31888123 84.97331238 244.32125854 C83.95522261 244.29948701 82.93713285 244.27771547 81.88819188 244.25528419 C75.88041529 244.30640729 72.6549696 245.2027935 68.38414586 249.52809411 C67.92737772 250.01382306 67.47060959 250.499552 67 251 C66.19346481 251.61929886 65.38692963 252.23859772 64.55595398 252.87666321 C62.19269467 256.1016914 62.75565317 259.17996579 63.10473633 262.97338867 C63.21800377 264.64057601 63.33003465 266.3078477 63.44100952 267.97518921 C63.50649364 268.86015453 63.57197777 269.74511986 63.63944626 270.65690231 C68.39630864 338.85543095 68.39630864 338.85543095 55.47720337 354.84371948 C49.44818272 361.45638362 42.693534 366.86937456 35.62255859 372.31494141 C33.77645394 373.74233075 31.93341351 375.17369367 30.09375 376.609375 C29.22319977 377.28515594 28.35264954 377.96093689 27.45571899 378.65719604 C21.57184588 383.57955658 19.08737701 387.72606245 18.28125 395.390625 C17.78507979 404.02971381 18.94511815 412.61777841 21 421 C23.90956685 419.38753108 26.0324733 417.69951693 28 415 C29.05028904 409.35906865 28.52491857 403.62624228 28.28320312 397.91992188 C28.19071971 389.09505661 28.19071971 389.09505661 30.57080078 385.87451172 C32.59765625 384.15234375 32.59765625 384.15234375 34.58618164 382.83569336 C36.82099459 381.13613247 38.2124605 379.59433076 39.97314453 377.43896484 C42.55427616 374.38619348 45.24957074 371.94811782 48.45672607 369.56044769 C58.63554533 361.9598874 68.66039664 353.6402457 70.74279594 340.50164986 C71.98474958 328.99233693 71.41824886 317.37444616 70.83044434 305.83966064 C70.45211466 297.8276979 70.31985346 289.80636057 70.15201759 281.787817 C70.07560349 279.00741635 69.94785088 276.23342572 69.80900574 273.45552063 C69.74675231 271.75788203 69.68498354 270.06022557 69.6237793 268.36254883 C69.57228226 267.60053162 69.52078522 266.8385144 69.46772766 266.05340576 C69.3850097 263.02559905 69.53102277 260.67128778 71.29236794 258.15012169 C72.89851379 256.4773407 72.89851379 256.4773407 76 254 C76.66 254 77.32 254 78 254 C79.96113957 274.13959443 81.27721998 294.28029219 82 314.5 C82.02686795 315.23956609 82.0537359 315.97913218 82.08141804 316.74110937 C83.27952046 350.93061836 84.33699673 383.63483337 60.09356689 410.53390503 C55.90051759 414.95710053 51.45474784 419.04522649 46.875 423.0625 C45.7697699 424.04481094 45.7697699 424.04481094 44.64221191 425.04696655 C39.69658378 429.40705674 34.62696511 433.55976311 29.3671875 437.53515625 C28.69546383 438.04289644 28.02374016 438.55063663 27.33166122 439.07376289 C25.40569046 440.49015692 23.44992109 441.84091124 21.46435547 443.17211914 C20.91626221 443.56820625 20.36816895 443.96429337 19.8034668 444.37238312 C13.11443988 448.59102323 8.94079431 447 0 447 C0 299.49 0 151.98 0 0 Z " fill="#FDFAFA" transform="translate(311,398)"/>
<path d="M0 0 C8.71883351 7.13359105 16.98977672 15.18139827 24.09489441 23.93617249 C25.97217041 26.09794387 25.97217041 26.09794387 28.47163391 27.83518982 C33.11436491 31.5164222 36.03244239 34.49615279 36.94247437 40.38821411 C37.43470827 45.84951234 37.36579513 51.30751082 37.29296875 56.78515625 C37.29717205 58.81197462 37.30449294 60.83878868 37.31477356 62.86558533 C37.32496844 67.10008363 37.2997675 71.33245909 37.2487793 75.56665039 C37.18615967 80.97688464 37.20866372 86.38276367 37.25730419 91.79300785 C37.28602833 95.97393442 37.27120349 100.15384717 37.24328041 104.33474541 C37.23480245 106.3285034 37.23925383 108.32236217 37.25722313 110.31605721 C37.35890705 125.84808479 37.35890705 125.84808479 34.01968384 131.13595581 C31.79467184 133.3570218 29.52518696 135.14085978 27 137 C26.55382708 137.6835357 26.10765416 138.36707139 25.64796084 139.0713203 C24 141 24 141 21.89615661 141.49679399 C21.07709986 141.4952751 20.2580431 141.49375622 19.41416645 141.49219131 C17.99443152 141.50413761 17.99443152 141.50413761 16.54601508 141.51632524 C14.98328881 141.49884819 14.98328881 141.49884819 13.38899231 141.48101807 C12.2838699 141.48443577 11.17874749 141.48785347 10.04013652 141.49137473 C6.31792061 141.4979904 2.59641761 141.47591581 -1.12573242 141.45410156 C-3.78625622 141.45297388 -6.44673566 141.45342903 -9.10725403 141.45587158 C-14.84494159 141.45797092 -20.58244748 141.44540092 -26.32008934 141.42292023 C-34.61576605 141.39043801 -42.91135474 141.3799971 -51.20708815 141.37496826 C-64.66569648 141.36620966 -78.12420795 141.33957879 -91.58276367 141.30175781 C-104.65795405 141.26505233 -117.73311813 141.23673342 -130.80834961 141.21972656 C-131.61405024 141.21867567 -132.41975088 141.21762477 -133.24986669 141.21654204 C-137.29175386 141.21132196 -141.33364121 141.20626711 -145.37552869 141.20129442 C-178.91708939 141.15981478 -212.45853283 141.08935102 -246 141 C-246.2786425 127.50021328 -246.4915606 114.00111582 -246.62174606 100.49903393 C-246.68424621 94.22854382 -246.76894308 87.96002778 -246.90527344 81.69067383 C-247.03613633 75.63450701 -247.10750718 69.58023242 -247.13852692 63.52276039 C-247.16061677 61.21773814 -247.2037574 58.91281391 -247.26876068 56.60860252 C-247.78393753 37.58152752 -247.78393753 37.58152752 -243.28381348 32.10317993 C-240.45810957 29.26894966 -237.39635461 27.10085325 -234 25 C-233.67 24.67 -233.34 24.34 -233 24 C-229.98655471 23.8819763 -226.99541141 23.82988024 -223.98083496 23.81918335 C-223.02261227 23.81197883 -222.06438958 23.80477432 -221.07712984 23.79735148 C-217.83984334 23.77448211 -214.60256464 23.75901192 -211.36523438 23.74365234 C-209.05459399 23.7292124 -206.74395557 23.71445489 -204.43331909 23.69940186 C-183.31331107 23.56897289 -162.19278471 23.50300284 -141.0724411 23.45155907 C-138.24458282 23.44455004 -135.41672487 23.4374231 -132.58886719 23.43017578 C-131.8860084 23.42838049 -131.18314961 23.4265852 -130.45899206 23.4247355 C-119.08381408 23.39469609 -107.7090993 23.32995697 -96.33416337 23.25148933 C-84.65541051 23.17159292 -72.97692292 23.12657301 -61.29790354 23.11253321 C-54.74063163 23.10366415 -48.18425015 23.07937757 -41.62724304 23.01786423 C-35.45459292 22.96061771 -29.28329226 22.94594632 -23.11041641 22.96373749 C-20.84687906 22.96285908 -18.58328653 22.94660207 -16.31998825 22.91369247 C0.75547227 22.67833096 0.75547227 22.67833096 6.25230408 25.91508865 C8.54225466 28.16136128 10.24064827 30.32927726 12 33 C13.31583754 34.51537103 14.64694426 36.01776589 16 37.5 C17 38.66666667 18 39.83333333 19 41 C19.33 41.33 19.66 41.66 20 42 C20.13750434 44.41604603 20.2103818 46.80443076 20.24047852 49.22265625 C20.25347488 49.97887772 20.26647125 50.73509918 20.27986145 51.51423645 C20.40697667 59.45336511 20.46340941 67.39357775 20.51489258 75.33349609 C20.54158149 79.09744379 20.59022397 82.86011546 20.65844727 86.62353516 C20.74065952 91.17008069 20.7831184 95.71541628 20.79795647 100.26266479 C20.81016603 101.99143681 20.83611074 103.72017137 20.87640572 105.44851685 C21.21325119 120.66669155 21.21325119 120.66669155 16.01147461 126.5078125 C14.6913446 127.69115113 13.35787968 128.86017706 12 130 C11.67 130.66 11.34 131.32 11 132 C16.04116559 132 19.27749739 131.35612868 23.21044922 128.09912109 C29.32824615 121.64028596 28.19101884 112.74743405 28.1328125 104.4140625 C28.14329607 102.58855934 28.15585309 100.76306702 28.17037964 98.93759155 C28.1911453 95.11933267 28.18213386 91.30256631 28.15283203 87.484375 C28.11848419 82.61196131 28.16541074 77.74427144 28.23581123 72.87238503 C28.27992894 69.10406775 28.27683716 65.33686608 28.26028061 61.56837082 C28.25865008 59.77354123 28.27221465 57.97862618 28.30182266 56.18404007 C28.61278691 45.95721663 28.61278691 45.95721663 24.82122803 36.75994873 C22.33581814 34.26793704 19.78061345 32.14936134 17 30 C15.71557263 28.61447094 14.45760539 27.20297407 13.25 25.75 C12.18555801 24.48387427 11.09954097 23.23576728 10 22 C9.61312012 21.49259277 9.22624023 20.98518555 8.82763672 20.46240234 C5.84839341 16.92330123 3.69408371 15.6073849 -0.9609375 15.1953125 C-2.76500839 15.1426389 -4.57016766 15.11985069 -6.375 15.125 C-7.76525391 15.0940625 -7.76525391 15.0940625 -9.18359375 15.0625 C-11.45663414 15.01563319 -13.72657785 14.99553606 -16 15 C-12.69376454 10.82942876 -9.37722567 7.45658909 -5.1875 4.125 C-4.21167969 3.34382813 -3.23585938 2.56265625 -2.23046875 1.7578125 C-1.12638672 0.88769531 -1.12638672 0.88769531 0 0 Z " fill="#F40406" transform="translate(612,437)"/>
<path d="M0 0 C1.64761133 0.02054297 3.29529033 0.03618852 4.94299316 0.04716492 C9.25863535 0.08896391 13.5701378 0.19681386 17.88415527 0.31890869 C22.29459628 0.43189001 26.70571337 0.48176963 31.1171875 0.53710938 C39.75709835 0.65472213 48.39365785 0.84218845 57.03125 1.07421875 C56.08688112 2.50325342 55.14083336 3.93117871 54.1940918 5.35864258 C53.66744431 6.15393875 53.14079681 6.94923492 52.59819031 7.76863098 C50.48259419 10.88150804 48.19808767 13.8277096 45.84375 16.76171875 C44.89572866 17.95564606 43.94781551 19.14965928 43 20.34375 C42.51660156 20.95041504 42.03320312 21.55708008 41.53515625 22.18212891 C38.95661615 25.42623374 36.40152459 28.68873585 33.84375 31.94921875 C32.91286356 33.13419562 31.98188378 34.31909917 31.05078125 35.50390625 C30.38433594 36.35210937 29.71789062 37.2003125 29.03125 38.07421875 C27.71125 37.74421875 26.39125 37.41421875 25.03125 37.07421875 C25.03125 36.41421875 25.03125 35.75421875 25.03125 35.07421875 C24.37125 35.07421875 23.71125 35.07421875 23.03125 35.07421875 C22.76119141 35.65888916 22.49113281 36.24355957 22.21289062 36.84594727 C21.03266773 39.07154528 19.74477278 40.80295498 18.125 42.7265625 C17.55096436 43.41411621 16.97692871 44.10166992 16.38549805 44.81005859 C15.77359619 45.53660645 15.16169434 46.2631543 14.53125 47.01171875 C10.16183372 52.25322823 5.84591712 57.51440966 1.71875 62.94921875 C-2.71371267 68.77042378 -7.31494666 74.4294636 -11.96875 80.07421875 C-18.90663126 88.53046867 -25.74550596 97.03677236 -32.37890625 105.734375 C-35.85116969 110.24791073 -39.47001385 114.64246669 -43.07324219 119.05151367 C-46.67075629 123.45936942 -50.21615629 127.90312613 -53.71875 132.38671875 C-57.69913638 137.48078467 -61.74994364 142.50893532 -65.859375 147.5 C-68.5622775 150.79854212 -71.21865131 154.13142607 -73.84375 157.4921875 C-75.96875 160.07421875 -75.96875 160.07421875 -78.65625 162.875 C-84.87862915 169.45093589 -87.08171973 174.26623372 -87.1015625 183.43359375 C-87.05773437 184.305 -87.01390625 185.17640625 -86.96875 186.07421875 C-86.30875 186.07421875 -85.64875 186.07421875 -84.96875 186.07421875 C-84.57429688 185.21376953 -84.57429688 185.21376953 -84.171875 184.3359375 C-82.89096495 181.92799297 -81.44088049 180.00194424 -79.71875 177.88671875 C-79.00976562 177.01273438 -78.30078125 176.13875 -77.5703125 175.23828125 C-75.61350143 172.85249492 -73.64695791 170.47482158 -71.6796875 168.09765625 C-70.4841891 166.65249752 -69.28888158 165.20718086 -68.09375 163.76171875 C-67.1797644 162.65642822 -67.1797644 162.65642822 -66.24731445 161.52880859 C-61.88831166 156.23843472 -57.68813614 150.85522247 -53.5390625 145.3984375 C-49.98609307 140.76320931 -46.26993975 136.25939555 -42.57617188 131.73632812 C-39.27474175 127.69080342 -36.02484106 123.61467622 -32.83984375 119.4765625 C-29.72498397 115.47731664 -26.54058505 111.53361643 -23.36865234 107.57958984 C-20.72892948 104.28551315 -18.10603485 100.98201278 -15.53125 97.63671875 C-11.69217651 92.6657317 -7.7044886 87.81606129 -3.7355957 82.94873047 C-0.85795025 79.41501347 1.99806387 75.87075683 4.78125 72.26171875 C5.86377649 70.86525958 6.94716884 69.46947136 8.03125 68.07421875 C8.794375 67.089375 9.5575 66.10453125 10.34375 65.08984375 C11.148125 64.0740625 11.9525 63.05828125 12.78125 62.01171875 C13.51859375 61.07199219 14.2559375 60.13226563 15.015625 59.1640625 C16.01335937 58.12958984 16.01335937 58.12958984 17.03125 57.07421875 C20.03125 57.07421875 20.03125 57.07421875 21.71875 58.57421875 C22.151875 59.06921875 22.585 59.56421875 23.03125 60.07421875 C21.60630239 64.33365674 19.52456063 67.1307356 16.59375 70.51171875 C15.68191104 71.57929422 14.77181767 72.64836257 13.86328125 73.71875 C13.3935791 74.27127441 12.92387695 74.82379883 12.43994141 75.39306641 C10.15969066 78.11435005 7.96736251 80.90210346 5.78125 83.69921875 C5.32991699 84.27631592 4.87858398 84.85341309 4.41357422 85.44799805 C2.95084104 87.32188743 1.49080303 89.19785151 0.03125 91.07421875 C-1.07421572 92.49349195 -2.17968458 93.91276269 -3.28515625 95.33203125 C-8.04644266 101.44841171 -12.80247836 107.56884682 -17.55078125 113.6953125 C-23.5458193 121.42486768 -29.58024471 129.11688923 -35.70922852 136.74072266 C-39.28234734 141.19351643 -42.78295702 145.69674716 -46.25097656 150.23168945 C-49.29147519 154.20487501 -52.37144467 158.14518948 -55.46875 162.07421875 C-60.68900177 168.70020452 -65.83735942 175.37930932 -70.96875 182.07421875 C-77.21348495 190.21412202 -83.49265101 198.32598419 -89.79589844 206.4206543 C-93.20054904 210.79482586 -96.5934086 215.17739245 -99.96875 219.57421875 C-105.66344554 226.99035004 -111.40962592 234.36620459 -117.15429688 241.74365234 C-120.09388338 245.51939141 -123.03122715 249.2968741 -125.96875 253.07421875 C-127.13540539 254.57422752 -128.30207207 256.07422751 -129.46875 257.57421875 C-130.04625 258.31671875 -130.62375 259.05921875 -131.21875 259.82421875 C-150.46875 284.57421875 -150.46875 284.57421875 -152.21899414 286.82446289 C-153.38493716 288.32357897 -154.55079012 289.82276511 -155.71655273 291.32202148 C-158.64355437 295.08612678 -161.57214052 298.84897883 -164.50390625 302.609375 C-170.23697555 309.96631201 -175.94448641 317.34018694 -181.59375 324.76171875 C-186.19570221 330.80465116 -190.88743766 336.76568355 -195.65185547 342.68115234 C-200.05586872 348.15653073 -204.41259014 353.67744671 -208.56835938 359.34472656 C-209.96875 361.07421875 -209.96875 361.07421875 -212.00976562 363.03027344 C-219.77410443 371.05388447 -219.09025005 379.16383553 -218.96875 389.69921875 C-218.96875 395.43296875 -218.96875 401.16671875 -218.96875 407.07421875 C-239.42875 407.07421875 -259.88875 407.07421875 -280.96875 407.07421875 C-281.13375 397.85484375 -281.29875 388.63546875 -281.46875 379.13671875 C-281.54158203 376.242854 -281.61441406 373.34898926 -281.68945312 370.36743164 C-281.71283614 368.05227621 -281.73321762 365.73708769 -281.75 363.421875 C-281.79092773 362.23718628 -281.83185547 361.05249756 -281.87402344 359.83190918 C-281.87934408 353.4690811 -281.37138703 349.77848613 -277.06762695 344.92822266 C-275.71494571 343.62923077 -274.35012958 342.34264965 -272.96875 341.07421875 C-271.50000894 339.20248427 -270.05712971 337.30977005 -268.65625 335.38671875 C-265.35067635 330.91113106 -261.98072246 326.50226874 -258.53125 322.13671875 C-253.70084299 316.01719476 -248.93213798 309.85319027 -244.18945312 303.66552734 C-242.18217606 301.04884097 -240.16858871 298.43701336 -238.15625 295.82421875 C-229.75332107 284.90175132 -221.36902572 273.96689349 -213.1171875 262.9296875 C-210.50140794 259.45307866 -207.84869357 256.00589849 -205.19067383 252.56152344 C-200.38664817 246.33094705 -195.62682302 240.06677083 -190.86206055 233.80615234 C-187.1620964 228.94664157 -183.45142824 224.09613911 -179.71875 219.26171875 C-175.71383712 214.0659763 -171.77311946 208.82499549 -167.84619141 203.5703125 C-163.63211724 197.9391513 -159.36582492 192.34894667 -155.09375 186.76171875 C-149.31096905 179.19237081 -143.61123969 171.56792316 -137.97705078 163.88745117 C-133.85753018 158.27232716 -129.69317274 152.69315347 -125.50463867 147.12939453 C-121.64308312 141.99214082 -117.83346268 136.81799125 -114.03125 131.63671875 C-109.49556927 125.45732232 -104.89613815 119.33450579 -100.21875 113.26171875 C-96.00212496 107.78468608 -91.90446999 102.24776688 -87.92138672 96.59912109 C-83.52557687 90.39213187 -78.9373833 84.33115327 -74.36254883 78.25561523 C-70.51613245 73.14514589 -66.71794808 68.00547894 -62.97265625 62.8203125 C-58.88634767 57.2205563 -54.7004894 51.6943841 -50.53320312 46.15478516 C-48.00841731 42.79707218 -45.48871604 39.4355496 -42.96875 36.07421875 C-39.92454241 32.01361289 -36.87902554 27.95401811 -33.828125 23.8984375 C-33.30734375 23.20556641 -32.7865625 22.51269531 -32.25 21.79882812 C-31.27673392 20.50403665 -30.30284641 19.20971188 -29.328125 17.91601562 C-28.874375 17.31208984 -28.420625 16.70816406 -27.953125 16.0859375 C-27.49681702 15.50348267 -27.04050903 14.92102783 -26.57037354 14.32092285 C-24.88059672 12.0588129 -24.88059672 12.0588129 -23.52386475 9.31396484 C-17.65092073 -0.89881251 -10.59374334 -0.38903648 0 0 Z " fill="#FDFAFA" transform="translate(971.96875,396.92578125)"/>
<path d="M0 0 C0.0825 0.61875 0.165 1.2375 0.25 1.875 C0.81258459 4.18437567 0.81258459 4.18437567 3.0625 5.25 C3.701875 5.4975 4.34125 5.745 5 6 C4.41626854 9.88854956 2.58538518 11.98896108 0.0625 14.9375 C-3.39698171 19.05488631 -6.74591138 23.21883965 -10 27.5 C-13.78915517 32.46670801 -17.69160177 37.32163034 -21.66796875 42.140625 C-24.23748385 45.29118623 -26.74781451 48.48344924 -29.25 51.6875 C-33.29326874 56.86351329 -37.40625562 61.97682583 -41.5625 67.0625 C-45.53385242 71.92402337 -49.44418297 76.82022082 -53.25 81.8125 C-56.96207765 86.6801115 -60.78584726 91.4314057 -64.69140625 96.14453125 C-66.40626799 98.26562082 -68.07349528 100.3975346 -69.71484375 102.57421875 C-70.16859375 103.17492187 -70.62234375 103.775625 -71.08984375 104.39453125 C-71.97436125 105.57132409 -72.85346767 106.75220763 -73.7265625 107.9375 C-74.77162756 109.32753799 -75.88064976 110.66905236 -77 112 C-77.66 112 -78.32 112 -79 112 C-79.98986127 106.50923105 -80.74055835 100.97838616 -77.83691406 96.00976562 C-74.7354485 91.91118195 -71.15756114 88.25488556 -67.55029297 84.60253906 C-65.70671578 82.69683187 -64.08638954 80.68575928 -62.5 78.5625 C-59.34099884 74.40262718 -56.05348801 70.35771367 -52.75 66.3125 C-47.58850299 59.98423633 -42.51134708 53.59639979 -37.48046875 47.1640625 C-34.70746486 43.61978053 -31.89169313 40.11054681 -29.07421875 36.6015625 C-27.09717879 34.12188526 -25.13931684 31.62836468 -23.18554688 29.13037109 C-17.97429246 22.46804548 -12.68183813 15.87747261 -7.32739258 9.32958984 C-4.82232561 6.26271479 -2.33770655 3.19811244 0 0 Z " fill="#F50F10" transform="translate(964,471)"/>
<path d="M0 0 C2.31 0 4.62 0 7 0 C7 28.05 7 56.1 7 85 C4.69 85 2.38 85 0 85 C0 56.95 0 28.9 0 0 Z " fill="#FDF3F3" transform="translate(374,483)"/>
<path d="M0 0 C0.66 0.33 1.32 0.66 2 1 C2.10331031 8.42686315 1.99862699 15.63512596 1 23 C0.34 22.67 -0.32 22.34 -1 22 C-1.02887814 18.52085059 -1.04675687 15.04173169 -1.0625 11.5625 C-1.07087891 10.56927734 -1.07925781 9.57605469 -1.08789062 8.55273438 C-1.09111328 7.60849609 -1.09433594 6.66425781 -1.09765625 5.69140625 C-1.10289307 4.81685791 -1.10812988 3.94230957 -1.11352539 3.04125977 C-1 1 -1 1 0 0 Z " fill="#F40A0D" transform="translate(375,651)"/>
<path d="M0 0 C0.33 0 0.66 0 1 0 C1.01981934 0.95890137 1.03963867 1.91780273 1.06005859 2.90576172 C1.13604145 6.45811553 1.2247693 10.01005576 1.31738281 13.56201172 C1.35570301 15.10034021 1.39055056 16.63875925 1.421875 18.17724609 C1.46746059 20.38672276 1.5254634 22.59557448 1.5859375 24.8046875 C1.59748871 25.49432587 1.60903992 26.18396423 1.62094116 26.89450073 C1.64951022 30.8920154 1.64951022 30.8920154 4 34 C2.68 34.99 1.36 35.98 0 37 C0 24.79 0 12.58 0 0 Z " fill="#F51512" transform="translate(331,783)"/>
<path d="M0 0 C0.33 0.99 0.66 1.98 1 3 C-0.2578125 5.0078125 -0.2578125 5.0078125 -2.125 7.125 C-2.72570312 7.82882812 -3.32640625 8.53265625 -3.9453125 9.2578125 C-6.31139318 11.264033 -7.95461799 11.65225742 -11 12 C-7.49102731 7.81576108 -3.91939465 3.80411834 0 0 Z " fill="#F70F0F" transform="translate(349,820)"/>
<path d="M0 0 C0.66 0.33 1.32 0.66 2 1 C0.61811547 4.21043882 -0.92421903 6.04936365 -3.625 8.25 C-4.25664062 8.77078125 -4.88828125 9.2915625 -5.5390625 9.828125 C-6.02117187 10.21484375 -6.50328125 10.6015625 -7 11 C-7.66 10.34 -8.32 9.68 -9 9 C-6.03 6.03 -3.06 3.06 0 0 Z " fill="#F70F0F" transform="translate(379,790)"/>
<path d="M0 0 C0.33 0.99 0.66 1.98 1 3 C0.01 3.33 -0.98 3.66 -2 4 C-2.68486725 5.32407669 -3.34870203 6.65909241 -4 8 C-5.29470975 9.37086915 -6.62150897 10.71340837 -8 12 C-8.99 11.67 -9.98 11.34 -11 11 C-7.37 7.37 -3.74 3.74 0 0 Z " fill="#F90F10" transform="translate(356,758)"/>
<path d="M0 0 C0.33 1.32 0.66 2.64 1 4 C-0.43359375 6.359375 -0.43359375 6.359375 -2.4375 8.75 C-3.42556641 9.94882812 -3.42556641 9.94882812 -4.43359375 11.171875 C-4.95050781 11.77515625 -5.46742188 12.3784375 -6 13 C-6.66 12.34 -7.32 11.68 -8 11 C-5.36 7.37 -2.72 3.74 0 0 Z " fill="#F91616" transform="translate(923,437)"/>
<path d="M0 0 C0.66 0.33 1.32 0.66 2 1 C-0.06007659 4.60513403 -2.3513141 7.80331012 -5 11 C-5.99 10.67 -6.98 10.34 -8 10 C-5.36 6.7 -2.72 3.4 0 0 Z " fill="#F5181A" transform="translate(766,752)"/>
<path d="M0 0 C0.33 0.66 0.66 1.32 1 2 C-0.695241 6.2827141 -1.85640508 8.12869907 -6 10 C-7.26804566 12.0335948 -7.26804566 12.0335948 -8 14 C-8.66 13.67 -9.32 13.34 -10 13 C-5.05 6.565 -5.05 6.565 0 0 Z " fill="#F32423" transform="translate(928,543)"/>
<path d="M0 0 C0.66 0.99 1.32 1.98 2 3 C0.02 5.31 -1.96 7.62 -4 10 C-4.99 9.67 -5.98 9.34 -7 9 C-4.69 6.03 -2.38 3.06 0 0 Z " fill="#F71819" transform="translate(786,726)"/>
<path d="M0 0 C0.33 0.99 0.66 1.98 1 3 C-1.31 4.98 -3.62 6.96 -6 9 C-6.66 8.67 -7.32 8.34 -8 8 C-5.36 5.36 -2.72 2.72 0 0 Z " fill="#F51415" transform="translate(334,835)"/>
<path d="M0 0 C0.33 1.32 0.66 2.64 1 4 C-0.9375 6.25 -0.9375 6.25 -3 8 C-3.99 7.67 -4.98 7.34 -6 7 C-4.02 4.69 -2.04 2.38 0 0 Z " fill="#F82323" transform="translate(964,471)"/>
<path d="M0 0 C0.66 0.66 1.32 1.32 2 2 C0.35 3.65 -1.3 5.3 -3 7 C-3.99 6.67 -4.98 6.34 -6 6 C-4.02 4.02 -2.04 2.04 0 0 Z " fill="#FA0E0E" transform="translate(363,751)"/>
<path d="M0 0 C0.33 0.99 0.66 1.98 1 3 C-1.97 5.475 -1.97 5.475 -5 8 C-5 5 -5 5 -2.5 2.3125 C-1.675 1.549375 -0.85 0.78625 0 0 Z " fill="#F40B0C" transform="translate(377,746)"/>
<path d="M0 0 C0.33 0.66 0.66 1.32 1 2 C-0.98 4.64 -2.96 7.28 -5 10 C-5.66 9.67 -6.32 9.34 -7 9 C-4.69 6.03 -2.38 3.06 0 0 Z " fill="#FA211F" transform="translate(972,461)"/>
<path d="M0 0 C0.66 0.33 1.32 0.66 2 1 C1 4 1 4 -2 6 C-2.99 5.67 -3.98 5.34 -5 5 C-3.35 3.35 -1.7 1.7 0 0 Z " fill="#F91819" transform="translate(337,777)"/>
<path d="M0 0 C0.99 0.33 1.98 0.66 3 1 C2.195625 1.61875 1.39125 2.2375 0.5625 2.875 C-2.03874519 4.74164041 -2.03874519 4.74164041 -3 7 C-3.66 6.67 -4.32 6.34 -5 6 C-3.35 4.02 -1.7 2.04 0 0 Z " fill="#F72321" transform="translate(892,590)"/>
<path d="M0 0 C0.66 0 1.32 0 2 0 C0.75023244 3.65316671 0.32901247 4.78065836 -3 7 C-3 3.47967572 -2.29648649 2.5614657 0 0 Z " fill="#F81515" transform="translate(962,500)"/>
</svg>
